<svg xmlns="http://www.w3.org/2000/svg" width="1184" height="390" viewBox="0 0 1184 390"><rect width="100%" height="100%" fill="white"/><style>.label{font:700 18px Arial,sans-serif;fill:#102f55}.sub{font:400 14px Arial,sans-serif;fill:#597089}.band{font:700 16px Arial,sans-serif;fill:#102f55}.small{font:600 14px Arial,sans-serif;fill:#102f55}</style><rect x="28" y="36" width="267" height="210" rx="14" fill="#eef6fc" stroke="#0878c9" stroke-width="1.5"/>
  <circle cx="161.5" cy="81" r="27" fill="#0878c9"/><g transform="translate(146.5 66) scale(1.25)" fill="none" stroke="#ffffff" stroke-width="2" stroke-linecap="round" stroke-linejoin="round"><rect x="2" y="4" width="20" height="16" rx="2"/><path d="M10 4v4"/><path d="M2 8h20"/><path d="M6 4v4"/></g>
  <text x="161.5" y="128" text-anchor="middle" class="label">Application</text><text x="161.5" y="156" text-anchor="middle" class="sub">Service traffic</text><line x1="295" y1="141" x2="304" y2="141" stroke="#0878c9" stroke-width="3"/><path d="M303 134 L315 141 L303 148Z" fill="#0878c9"/><rect x="315" y="36" width="267" height="210" rx="14" fill="#eef6fc" stroke="#11958e" stroke-width="1.5"/>
  <circle cx="448.5" cy="81" r="27" fill="#11958e"/><g transform="translate(433.5 66) scale(1.25)" fill="none" stroke="#ffffff" stroke-width="2" stroke-linecap="round" stroke-linejoin="round"><rect x="16" y="16" width="6" height="6" rx="1"/><rect x="2" y="16" width="6" height="6" rx="1"/><rect x="9" y="2" width="6" height="6" rx="1"/><path d="M5 16v-3a1 1 0 0 1 1-1h12a1 1 0 0 1 1 1v3"/><path d="M12 12V8"/></g>
  <text x="448.5" y="128" text-anchor="middle" class="label">Container network</text><text x="448.5" y="156" text-anchor="middle" class="sub">Internal routing</text><line x1="582" y1="141" x2="591" y2="141" stroke="#0878c9" stroke-width="3"/><path d="M590 134 L602 141 L590 148Z" fill="#0878c9"/><rect x="602" y="36" width="267" height="210" rx="14" fill="#eef6fc" stroke="#6657c7" stroke-width="1.5"/>
  <circle cx="735.5" cy="81" r="27" fill="#6657c7"/><g transform="translate(720.5 66) scale(1.25)" fill="none" stroke="#ffffff" stroke-width="2" stroke-linecap="round" stroke-linejoin="round"><path d="M20 13c0 5-3.5 7.5-7.66 8.95a1 1 0 0 1-.67-.01C7.5 20.5 4 18 4 13V6a1 1 0 0 1 1-1c2 0 4.5-1.2 6.24-2.72a1.17 1.17 0 0 1 1.52 0C14.51 3.81 17 5 19 5a1 1 0 0 1 1 1z"/><path d="m9 12 2 2 4-4"/></g>
  <text x="735.5" y="128" text-anchor="middle" class="label">Controlled egress</text><text x="735.5" y="156" text-anchor="middle" class="sub">Policy boundary</text><line x1="869" y1="141" x2="878" y2="141" stroke="#0878c9" stroke-width="3"/><path d="M877 134 L889 141 L877 148Z" fill="#0878c9"/><rect x="889" y="36" width="267" height="210" rx="14" fill="#eef6fc" stroke="#f28a22" stroke-width="1.5"/>
  <circle cx="1022.5" cy="81" r="27" fill="#f28a22"/><g transform="translate(1007.5 66) scale(1.25)" fill="none" stroke="#ffffff" stroke-width="2" stroke-linecap="round" stroke-linejoin="round"><rect width="20" height="8" x="2" y="14" rx="2"/><path d="M6.01 18H6"/><path d="M10.01 18H10"/><path d="M15 10v4"/><path d="M17.84 7.17a4 4 0 0 0-5.66 0"/><path d="M20.66 4.34a8 8 0 0 0-11.31 0"/></g>
  <text x="1022.5" y="128" text-anchor="middle" class="label">Management network</text><text x="1022.5" y="156" text-anchor="middle" class="sub">Approved targets</text><rect x="28" y="300" width="1128" height="58" rx="9" fill="#dff2ff"/><text x="592" y="336" text-anchor="middle" class="band">Each boundary has one clear responsibility.</text></svg>