<svg xmlns="http://www.w3.org/2000/svg" width="1184" height="390" viewBox="0 0 1184 390"><rect width="100%" height="100%" fill="white"/><style>.label{font:700 18px Arial,sans-serif;fill:#102f55}.sub{font:400 14px Arial,sans-serif;fill:#597089}.band{font:700 16px Arial,sans-serif;fill:#102f55}.small{font:600 14px Arial,sans-serif;fill:#102f55}</style><rect x="28" y="36" width="267" height="210" rx="14" fill="#eef6fc" stroke="#0878c9" stroke-width="1.5"/>
  <circle cx="161.5" cy="81" r="27" fill="#0878c9"/><g transform="translate(146.5 66) scale(1.25)" fill="none" stroke="#ffffff" stroke-width="2" stroke-linecap="round" stroke-linejoin="round"><path d="M11 21.73a2 2 0 0 0 2 0l7-4A2 2 0 0 0 21 16V8a2 2 0 0 0-1-1.73l-7-4a2 2 0 0 0-2 0l-7 4A2 2 0 0 0 3 8v8a2 2 0 0 0 1 1.73z"/><path d="M12 22V12"/><polyline points="3.29 7 12 12 20.71 7"/><path d="m7.5 4.27 9 5.15"/></g>
  <text x="161.5" y="128" text-anchor="middle" class="label">Image</text><text x="161.5" y="156" text-anchor="middle" class="sub">Code + dependencies</text><line x1="295" y1="141" x2="304" y2="141" stroke="#0878c9" stroke-width="3"/><path d="M303 134 L315 141 L303 148Z" fill="#0878c9"/><rect x="315" y="36" width="267" height="210" rx="14" fill="#eef6fc" stroke="#11958e" stroke-width="1.5"/>
  <circle cx="448.5" cy="81" r="27" fill="#11958e"/><g transform="translate(433.5 66) scale(1.25)" fill="none" stroke="#ffffff" stroke-width="2" stroke-linecap="round" stroke-linejoin="round"><path d="M10 5H3"/><path d="M12 19H3"/><path d="M14 3v4"/><path d="M16 17v4"/><path d="M21 12h-9"/><path d="M21 19h-5"/><path d="M21 5h-7"/><path d="M8 10v4"/><path d="M8 12H3"/></g>
  <text x="448.5" y="128" text-anchor="middle" class="label">Runtime config</text><text x="448.5" y="156" text-anchor="middle" class="sub">Environment</text><line x1="582" y1="141" x2="591" y2="141" stroke="#0878c9" stroke-width="3"/><path d="M590 134 L602 141 L590 148Z" fill="#0878c9"/><rect x="602" y="36" width="267" height="210" rx="14" fill="#eef6fc" stroke="#6657c7" stroke-width="1.5"/>
  <circle cx="735.5" cy="81" r="27" fill="#6657c7"/><g transform="translate(720.5 66) scale(1.25)" fill="none" stroke="#ffffff" stroke-width="2" stroke-linecap="round" stroke-linejoin="round"><path d="M2.586 17.414A2 2 0 0 0 2 18.828V21a1 1 0 0 0 1 1h3a1 1 0 0 0 1-1v-1a1 1 0 0 1 1-1h1a1 1 0 0 0 1-1v-1a1 1 0 0 1 1-1h.172a2 2 0 0 0 1.414-.586l.814-.814a6.5 6.5 0 1 0-4-4z"/><circle cx="16.5" cy="7.5" r=".5" fill="currentColor"/></g>
  <text x="735.5" y="128" text-anchor="middle" class="label">Secrets</text><text x="735.5" y="156" text-anchor="middle" class="sub">Injected securely</text><line x1="869" y1="141" x2="878" y2="141" stroke="#0878c9" stroke-width="3"/><path d="M877 134 L889 141 L877 148Z" fill="#0878c9"/><rect x="889" y="36" width="267" height="210" rx="14" fill="#eef6fc" stroke="#f28a22" stroke-width="1.5"/>
  <circle cx="1022.5" cy="81" r="27" fill="#f28a22"/><g transform="translate(1007.5 66) scale(1.25)" fill="none" stroke="#ffffff" stroke-width="2" stroke-linecap="round" stroke-linejoin="round"><ellipse cx="12" cy="5" rx="9" ry="3"/><path d="M3 5V19A9 3 0 0 0 21 19V5"/><path d="M3 12A9 3 0 0 0 21 12"/></g>
  <text x="1022.5" y="128" text-anchor="middle" class="label">Persistent state</text><text x="1022.5" y="156" text-anchor="middle" class="sub">External volume</text><rect x="28" y="300" width="1128" height="58" rx="9" fill="#dff2ff"/><text x="592" y="336" text-anchor="middle" class="band">Each boundary has one clear responsibility.</text></svg>