<svg xmlns="http://www.w3.org/2000/svg" width="1184" height="430" viewBox="0 0 1184 430"><rect width="100%" height="100%" fill="white"/><style>.label{font:700 18px Arial,sans-serif;fill:#102f55}.sub{font:400 14px Arial,sans-serif;fill:#597089}.band{font:700 16px Arial,sans-serif;fill:#102f55}.small{font:600 14px Arial,sans-serif;fill:#102f55}</style><defs><marker id="loopArrow" markerWidth="8" markerHeight="8" refX="5" refY="3" orient="auto"><path d="M0,0 L0,6 L6,3 z" fill="#597089"/></marker></defs><circle cx="592" cy="181" r="126" fill="none" stroke="#b9d3e5" stroke-width="3" stroke-dasharray="7 8" marker-end="url(#loopArrow)"/><circle cx="592" cy="181" r="73" fill="#e7f3fc" stroke="#0878c9" stroke-width="2"/><text x="592" y="177" text-anchor="middle" class="label">Build and</text><text x="592" y="199" text-anchor="middle" class="label">replace</text><circle cx="592" cy="55" r="40" fill="#0878c9"/><g transform="translate(575 38) scale(1.4166666666666667)" fill="none" stroke="#ffffff" stroke-width="2" stroke-linecap="round" stroke-linejoin="round"><path d="M15 2h-4a2 2 0 0 0-2 2v11a2 2 0 0 0 2 2h8a2 2 0 0 0 2-2V8"/><path d="M16.706 2.706A2.4 2.4 0 0 0 15 2v5a1 1 0 0 0 1 1h5a2.4 2.4 0 0 0-.706-1.706z"/><path d="M5 7a2 2 0 0 0-2 2v11a2 2 0 0 0 2 2h8a2 2 0 0 0 1.732-1"/></g><text x="592" y="116" text-anchor="middle" class="small">Build context</text><circle cx="718" cy="181" r="40" fill="#f28a22"/><g transform="translate(701 164) scale(1.4166666666666667)" fill="none" stroke="#ffffff" stroke-width="2" stroke-linecap="round" stroke-linejoin="round"><path d="M12.83 2.18a2 2 0 0 0-1.66 0L2.6 6.08a1 1 0 0 0 0 1.83l8.58 3.91a2 2 0 0 0 1.66 0l8.58-3.9a1 1 0 0 0 0-1.83z"/><path d="M2 12a1 1 0 0 0 .58.91l8.6 3.91a2 2 0 0 0 1.65 0l8.58-3.9A1 1 0 0 0 22 12"/><path d="M2 17a1 1 0 0 0 .58.91l8.6 3.91a2 2 0 0 0 1.65 0l8.58-3.9A1 1 0 0 0 22 17"/></g><text x="718" y="242" text-anchor="middle" class="small">Image</text><circle cx="592" cy="307" r="40" fill="#11958e"/><g transform="translate(575 290) scale(1.4166666666666667)" fill="none" stroke="#ffffff" stroke-width="2" stroke-linecap="round" stroke-linejoin="round"><path d="M22 7.7c0-.6-.4-1.2-.8-1.5l-6.3-3.9a1.72 1.72 0 0 0-1.7 0l-10.3 6c-.5.2-.9.8-.9 1.4v6.6c0 .5.4 1.2.8 1.5l6.3 3.9a1.72 1.72 0 0 0 1.7 0l10.3-6c.5-.3.9-1 .9-1.5Z"/><path d="M10 21.9V14L2.1 9.1"/><path d="m10 14 11.9-6.9"/><path d="M14 19.8v-8.1"/><path d="M18 17.5V9.4"/></g><text x="592" y="368" text-anchor="middle" class="small">Container</text><circle cx="466" cy="181.00000000000003" r="40" fill="#dc4c4c"/><g transform="translate(449 164.00000000000003) scale(1.4166666666666667)" fill="none" stroke="#ffffff" stroke-width="2" stroke-linecap="round" stroke-linejoin="round"><path d="M10 11v6"/><path d="M14 11v6"/><path d="M19 6v14a2 2 0 0 1-2 2H7a2 2 0 0 1-2-2V6"/><path d="M3 6h18"/><path d="M8 6V4a2 2 0 0 1 2-2h4a2 2 0 0 1 2 2v2"/></g><text x="466" y="242.00000000000003" text-anchor="middle" class="small">Remove</text><rect x="190" y="374" width="804" height="42" rx="8" fill="#dff2ff"/><text x="592" y="401" text-anchor="middle" class="band">Persistent data remains outside the disposable container.</text></svg>