<svg xmlns="http://www.w3.org/2000/svg" width="1184" height="430" viewBox="0 0 1184 430"><rect width="100%" height="100%" fill="white"/><style>.label{font:700 18px Arial,sans-serif;fill:#102f55}.sub{font:400 14px Arial,sans-serif;fill:#597089}.band{font:700 16px Arial,sans-serif;fill:#102f55}.small{font:600 14px Arial,sans-serif;fill:#102f55}</style><defs><marker id="loopArrow" markerWidth="8" markerHeight="8" refX="5" refY="3" orient="auto"><path d="M0,0 L0,6 L6,3 z" fill="#597089"/></marker></defs><circle cx="592" cy="181" r="126" fill="none" stroke="#b9d3e5" stroke-width="3" stroke-dasharray="7 8" marker-end="url(#loopArrow)"/><circle cx="592" cy="181" r="73" fill="#e7f3fc" stroke="#0878c9" stroke-width="2"/><text x="592" y="177" text-anchor="middle" class="label">Intent versus</text><text x="592" y="199" text-anchor="middle" class="label">actual state</text><circle cx="592" cy="55" r="40" fill="#0878c9"/><g transform="translate(575 38) scale(1.4166666666666667)" fill="none" stroke="#ffffff" stroke-width="2" stroke-linecap="round" stroke-linejoin="round"><path d="M3 7V5a2 2 0 0 1 2-2h2"/><path d="M17 3h2a2 2 0 0 1 2 2v2"/><path d="M21 17v2a2 2 0 0 1-2 2h-2"/><path d="M7 21H5a2 2 0 0 1-2-2v-2"/><circle cx="12" cy="12" r="3"/><path d="m16 16-1.9-1.9"/></g><text x="592" y="116" text-anchor="middle" class="small">Collect</text><circle cx="711.8331210531893" cy="142.06385870875664" r="40" fill="#f28a22"/><g transform="translate(694.8331210531893 125.06385870875664) scale(1.4166666666666667)" fill="none" stroke="#ffffff" stroke-width="2" stroke-linecap="round" stroke-linejoin="round"><circle cx="18" cy="18" r="3"/><circle cx="6" cy="6" r="3"/><path d="M13 6h3a2 2 0 0 1 2 2v7"/><path d="M11 18H8a2 2 0 0 1-2-2V9"/></g><text x="711.8331210531893" y="203.06385870875664" text-anchor="middle" class="small">Compare</text><circle cx="666.0609417888517" cy="282.93614129124336" r="40" fill="#6657c7"/><g transform="translate(649.0609417888517 265.93614129124336) scale(1.4166666666666667)" fill="none" stroke="#ffffff" stroke-width="2" stroke-linecap="round" stroke-linejoin="round"><path d="M13.172 2a2 2 0 0 1 1.414.586l6.71 6.71a2.4 2.4 0 0 1 0 3.408l-4.592 4.592a2.4 2.4 0 0 1-3.408 0l-6.71-6.71A2 2 0 0 1 6 9.172V3a1 1 0 0 1 1-1z"/><path d="M2 7v6.172a2 2 0 0 0 .586 1.414l6.71 6.71a2.4 2.4 0 0 0 3.191.193"/><circle cx="10.5" cy="6.5" r=".5" fill="currentColor"/></g><text x="666.0609417888517" y="343.93614129124336" text-anchor="middle" class="small">Classify</text><circle cx="517.9390582111484" cy="282.93614129124336" r="40" fill="#11958e"/><g transform="translate(500.93905821114845 265.93614129124336) scale(1.4166666666666667)" fill="none" stroke="#ffffff" stroke-width="2" stroke-linecap="round" stroke-linejoin="round"><path d="m16 11 2 2 4-4"/><path d="M16 21v-2a4 4 0 0 0-4-4H6a4 4 0 0 0-4 4v2"/><circle cx="9" cy="7" r="4"/></g><text x="517.9390582111484" y="343.93614129124336" text-anchor="middle" class="small">Assign</text><circle cx="472.16687894681064" cy="142.06385870875664" r="40" fill="#20a36a"/><g transform="translate(455.16687894681064 125.06385870875664) scale(1.4166666666666667)" fill="none" stroke="#ffffff" stroke-width="2" stroke-linecap="round" stroke-linejoin="round"><path d="M3 12a9 9 0 0 1 9-9 9.75 9.75 0 0 1 6.74 2.74L21 8"/><path d="M21 3v5h-5"/><path d="M21 12a9 9 0 0 1-9 9 9.75 9.75 0 0 1-6.74-2.74L3 16"/><path d="M8 16H3v5"/></g><text x="472.16687894681064" y="203.06385870875664" text-anchor="middle" class="small">Reconcile</text><rect x="190" y="374" width="804" height="42" rx="8" fill="#dff2ff"/><text x="592" y="401" text-anchor="middle" class="band">Expected exceptions become policy; unexplained drift becomes controlled work.</text></svg>