<svg xmlns="http://www.w3.org/2000/svg" width="1184" height="394" viewBox="0 0 1184 394"><rect width="100%" height="100%" fill="white"/><style>.label{font:700 18px Arial,sans-serif;fill:#102f55}.sub{font:400 14px Arial,sans-serif;fill:#597089}.band{font:700 16px Arial,sans-serif;fill:#102f55}.small{font:600 14px Arial,sans-serif;fill:#102f55}</style><rect x="135" y="38" width="914" height="54" rx="10" fill="#f3f0ff" stroke="#6657c7" stroke-width="2"/><g transform="translate(153 52) scale(1.0833333333333333)" fill="none" stroke="#6657c7" stroke-width="2" stroke-linecap="round" stroke-linejoin="round"><path d="M12 15v5s3.03-.55 4-2c1.08-1.62 0-5 0-5"/><path d="M4.5 16.5c-1.5 1.26-2 5-2 5s3.74-.5 5-2c.71-.84.7-2.13-.09-2.91a2.18 2.18 0 0 0-2.91-.09"/><path d="M9 12a22 22 0 0 1 2-3.95A12.88 12.88 0 0 1 22 2c0 2.72-.78 7.5-6 11a22.4 22.4 0 0 1-4 2z"/><path d="M9 12H4s.55-3.03 2-4c1.62-1.08 5 .05 5 .05"/></g><text x="195" y="71" text-anchor="start" class="label">Deploy gate</text><text x="1027" y="71" text-anchor="end" class="sub">approval, target health, and identity</text><rect x="177" y="104" width="830" height="54" rx="10" fill="#fff6e9" stroke="#f28a22" stroke-width="2"/><g transform="translate(195 118) scale(1.0833333333333333)" fill="none" stroke="#f28a22" stroke-width="2" stroke-linecap="round" stroke-linejoin="round"><path d="M12 22V12"/><path d="m16 17 2 2 4-4"/><path d="M21 11.127V8a2 2 0 0 0-1-1.73l-7-4a2 2 0 0 0-2 0l-7 4A2 2 0 0 0 3 8v8a2 2 0 0 0 1 1.729l7 4a2 2 0 0 0 2 .001l1.32-.753"/><path d="M3.29 7 12 12l8.71-5"/><path d="m7.5 4.27 8.997 5.148"/></g><text x="237" y="137" text-anchor="start" class="label">Release gate</text><text x="985" y="137" text-anchor="end" class="sub">identified artifact and provenance</text><rect x="219" y="170" width="746" height="54" rx="10" fill="#eaf8f5" stroke="#11958e" stroke-width="2"/><g transform="translate(237 184) scale(1.0833333333333333)" fill="none" stroke="#11958e" stroke-width="2" stroke-linecap="round" stroke-linejoin="round"><path d="M21 7 6.82 21.18a2.83 2.83 0 0 1-3.99-.01a2.83 2.83 0 0 1 0-4L17 3"/><path d="m16 2 6 6"/><path d="M12 16H4"/></g><text x="279" y="203" text-anchor="start" class="label">Qualification gate</text><text x="943" y="203" text-anchor="end" class="sub">integration, security, and policy</text><rect x="261" y="236" width="662" height="54" rx="10" fill="#eef6fc" stroke="#0878c9" stroke-width="2"/><g transform="translate(279 250) scale(1.0833333333333333)" fill="none" stroke="#0878c9" stroke-width="2" stroke-linecap="round" stroke-linejoin="round"><path d="M10.5 22H6a2 2 0 0 1-2-2V4a2 2 0 0 1 2-2h8a2.4 2.4 0 0 1 1.706.706l3.588 3.588A2.4 2.4 0 0 1 20 8v6"/><path d="M14 2v5a1 1 0 0 0 1 1h5"/><path d="m14 20 2 2 4-4"/></g><text x="321" y="269" text-anchor="start" class="label">Commit gate</text><text x="901" y="269" text-anchor="end" class="sub">syntax, unit tests, and review</text><rect x="135" y="322" width="914" height="48" rx="8" fill="#dff2ff"/><text x="592" y="353" text-anchor="middle" class="band">Confidence accumulates as the candidate approaches a protected environment.</text></svg>