<svg xmlns="http://www.w3.org/2000/svg" width="1184" height="390" viewBox="0 0 1184 390"><rect width="100%" height="100%" fill="white"/><style>.label{font:700 18px Arial,sans-serif;fill:#102f55}.sub{font:400 14px Arial,sans-serif;fill:#597089}.band{font:700 16px Arial,sans-serif;fill:#102f55}.small{font:600 14px Arial,sans-serif;fill:#102f55}</style><rect x="28" y="36" width="209.6" height="210" rx="14" fill="#eef6fc" stroke="#dc4c4c" stroke-width="1.5"/>
  <circle cx="132.8" cy="81" r="27" fill="#dc4c4c"/><g transform="translate(117.80000000000001 66) scale(1.25)" fill="none" stroke="#ffffff" stroke-width="2" stroke-linecap="round" stroke-linejoin="round"><path d="m21.73 18-8-14a2 2 0 0 0-3.48 0l-8 14A2 2 0 0 0 4 21h16a2 2 0 0 0 1.73-3"/><path d="M12 9v4"/><path d="M12 17h.01"/></g>
  <text x="132.8" y="128" text-anchor="middle" class="label">Failure detected</text><text x="132.8" y="156" text-anchor="middle" class="sub">Preserve evidence</text><line x1="237.6" y1="141" x2="246.60000000000002" y2="141" stroke="#0878c9" stroke-width="3"/><path d="M245.60000000000002 134 L257.6 141 L245.60000000000002 148Z" fill="#0878c9"/><rect x="257.6" y="36" width="209.6" height="210" rx="14" fill="#eef6fc" stroke="#f28a22" stroke-width="1.5"/>
  <circle cx="362.40000000000003" cy="81" r="27" fill="#f28a22"/><g transform="translate(347.40000000000003 66) scale(1.25)" fill="none" stroke="#ffffff" stroke-width="2" stroke-linecap="round" stroke-linejoin="round"><path d="m21 21-4.34-4.34"/><circle cx="11" cy="11" r="8"/></g>
  <text x="362.40000000000003" y="128" text-anchor="middle" class="label">Assess cause</text><text x="362.40000000000003" y="156" text-anchor="middle" class="sub">Known and reversible?</text><line x1="467.20000000000005" y1="141" x2="476.20000000000005" y2="141" stroke="#0878c9" stroke-width="3"/><path d="M475.20000000000005 134 L487.20000000000005 141 L475.20000000000005 148Z" fill="#0878c9"/><rect x="487.2" y="36" width="209.6" height="210" rx="14" fill="#eef6fc" stroke="#6657c7" stroke-width="1.5"/>
  <circle cx="592" cy="81" r="27" fill="#6657c7"/><g transform="translate(577 66) scale(1.25)" fill="none" stroke="#ffffff" stroke-width="2" stroke-linecap="round" stroke-linejoin="round"><path d="M9 14 4 9l5-5"/><path d="M4 9h10.5a5.5 5.5 0 0 1 5.5 5.5a5.5 5.5 0 0 1-5.5 5.5H11"/></g>
  <text x="592" y="128" text-anchor="middle" class="label">Rollback</text><text x="592" y="156" text-anchor="middle" class="sub">Restore baseline</text><line x1="696.8" y1="141" x2="705.8" y2="141" stroke="#0878c9" stroke-width="3"/><path d="M704.8 134 L716.8 141 L704.8 148Z" fill="#0878c9"/><rect x="716.8" y="36" width="209.6" height="210" rx="14" fill="#eef6fc" stroke="#0878c9" stroke-width="1.5"/>
  <circle cx="821.5999999999999" cy="81" r="27" fill="#0878c9"/><g transform="translate(806.5999999999999 66) scale(1.25)" fill="none" stroke="#ffffff" stroke-width="2" stroke-linecap="round" stroke-linejoin="round"><path d="M14.7 6.3a1 1 0 0 0 0 1.4l1.6 1.6a1 1 0 0 0 1.4 0l3.106-3.105c.32-.322.863-.22.983.218a6 6 0 0 1-8.259 7.057l-7.91 7.91a1 1 0 0 1-2.999-3l7.91-7.91a6 6 0 0 1 7.057-8.259c.438.12.54.662.219.984z"/></g>
  <text x="821.5999999999999" y="128" text-anchor="middle" class="label">Remediate</text><text x="821.5999999999999" y="156" text-anchor="middle" class="sub">Forward fix</text><line x1="926.4" y1="141" x2="935.4" y2="141" stroke="#0878c9" stroke-width="3"/><path d="M934.4 134 L946.4 141 L934.4 148Z" fill="#0878c9"/><rect x="946.4" y="36" width="209.6" height="210" rx="14" fill="#eef6fc" stroke="#20a36a" stroke-width="1.5"/>
  <circle cx="1051.2" cy="81" r="27" fill="#20a36a"/><g transform="translate(1036.2 66) scale(1.25)" fill="none" stroke="#ffffff" stroke-width="2" stroke-linecap="round" stroke-linejoin="round"><path d="M3.85 8.62a4 4 0 0 1 4.78-4.77 4 4 0 0 1 6.74 0 4 4 0 0 1 4.78 4.78 4 4 0 0 1 0 6.74 4 4 0 0 1-4.77 4.78 4 4 0 0 1-6.75 0 4 4 0 0 1-4.78-4.77 4 4 0 0 1 0-6.76Z"/><path d="m9 12 2 2 4-4"/></g>
  <text x="1051.2" y="128" text-anchor="middle" class="label">Revalidate</text><text x="1051.2" y="156" text-anchor="middle" class="sub">Confirm service</text><rect x="28" y="300" width="1128" height="58" rx="9" fill="#dff2ff"/><text x="592" y="336" text-anchor="middle" class="band">Each boundary has one clear responsibility.</text></svg>