<svg xmlns="http://www.w3.org/2000/svg" width="1184" height="385" viewBox="0 0 1184 385"><rect width="100%" height="100%" fill="white"/><style>.label{font:700 18px Arial,sans-serif;fill:#102f55}.sub{font:400 14px Arial,sans-serif;fill:#597089}.band{font:700 16px Arial,sans-serif;fill:#102f55}.small{font:600 14px Arial,sans-serif;fill:#102f55}</style><rect x="367" y="24" width="450" height="54" rx="10" fill="#f3f0ff" stroke="#6657c7" stroke-width="2"/><g transform="translate(385 38) scale(1.0833333333333333)" fill="none" stroke="#6657c7" stroke-width="2" stroke-linecap="round" stroke-linejoin="round"><path d="M16 21v-2a4 4 0 0 0-4-4H6a4 4 0 0 0-4 4v2"/><path d="M16 3.128a4 4 0 0 1 0 7.744"/><path d="M22 21v-2a4 4 0 0 0-3-3.87"/><circle cx="9" cy="7" r="4"/></g><text x="427" y="58" text-anchor="start" class="label">Acceptance tests</text><text x="797" y="58" text-anchor="end" class="sub">few, slow, highest business meaning</text><rect x="282" y="92" width="620" height="54" rx="10" fill="#fff6e9" stroke="#f28a22" stroke-width="2"/><g transform="translate(300 106) scale(1.0833333333333333)" fill="none" stroke="#f28a22" stroke-width="2" stroke-linecap="round" stroke-linejoin="round"><rect x="16" y="16" width="6" height="6" rx="1"/><rect x="2" y="16" width="6" height="6" rx="1"/><rect x="9" y="2" width="6" height="6" rx="1"/><path d="M5 16v-3a1 1 0 0 1 1-1h12a1 1 0 0 1 1 1v3"/><path d="M12 12V8"/></g><text x="342" y="126" text-anchor="start" class="label">Integration tests</text><text x="882" y="126" text-anchor="end" class="sub">service and protocol boundaries</text><rect x="197" y="160" width="790" height="54" rx="10" fill="#eaf8f5" stroke="#11958e" stroke-width="2"/><g transform="translate(215 174) scale(1.0833333333333333)" fill="none" stroke="#11958e" stroke-width="2" stroke-linecap="round" stroke-linejoin="round"><path d="M21 7 6.82 21.18a2.83 2.83 0 0 1-3.99-.01a2.83 2.83 0 0 1 0-4L17 3"/><path d="m16 2 6 6"/><path d="M12 16H4"/></g><text x="257" y="194" text-anchor="start" class="label">Unit tests</text><text x="967" y="194" text-anchor="end" class="sub">many, fast, isolated logic</text><rect x="112" y="228" width="960" height="54" rx="10" fill="#eef6fc" stroke="#0878c9" stroke-width="2"/><g transform="translate(130 242) scale(1.0833333333333333)" fill="none" stroke="#0878c9" stroke-width="2" stroke-linecap="round" stroke-linejoin="round"><path d="M3 7V5a2 2 0 0 1 2-2h2"/><path d="M17 3h2a2 2 0 0 1 2 2v2"/><path d="M21 17v2a2 2 0 0 1-2 2h-2"/><path d="M7 21H5a2 2 0 0 1-2-2v-2"/><path d="M7 8h8"/><path d="M7 12h10"/><path d="M7 16h6"/></g><text x="172" y="262" text-anchor="start" class="label">Static checks</text><text x="1052" y="262" text-anchor="end" class="sub">continuous and inexpensive</text><rect x="112" y="316" width="960" height="48" rx="8" fill="#dff2ff"/><text x="592" y="347" text-anchor="middle" class="band">Use many fast checks and fewer expensive tests; no layer replaces another.</text></svg>