<svg xmlns="http://www.w3.org/2000/svg" width="1184" height="430" viewBox="0 0 1184 430"><rect width="100%" height="100%" fill="white"/><style>.label{font:700 18px Arial,sans-serif;fill:#102f55}.sub{font:400 14px Arial,sans-serif;fill:#597089}.band{font:700 16px Arial,sans-serif;fill:#102f55}.small{font:600 14px Arial,sans-serif;fill:#102f55}</style><defs><marker id="loopArrow" markerWidth="8" markerHeight="8" refX="5" refY="3" orient="auto"><path d="M0,0 L0,6 L6,3 z" fill="#597089"/></marker></defs><circle cx="592" cy="181" r="126" fill="none" stroke="#b9d3e5" stroke-width="3" stroke-dasharray="7 8" marker-end="url(#loopArrow)"/><circle cx="592" cy="181" r="73" fill="#e7f3fc" stroke="#0878c9" stroke-width="2"/><text x="592" y="177" text-anchor="middle" class="label">Ephemeral test</text><text x="592" y="199" text-anchor="middle" class="label">environment</text><circle cx="592" cy="55" r="40" fill="#0878c9"/><g transform="translate(575 38) scale(1.4166666666666667)" fill="none" stroke="#ffffff" stroke-width="2" stroke-linecap="round" stroke-linejoin="round"><rect width="18" height="18" x="3" y="3" rx="2"/><path d="M8 12h8"/><path d="M12 8v8"/></g><text x="592" y="116" text-anchor="middle" class="small">Create</text><circle cx="711.8331210531893" cy="142.06385870875664" r="40" fill="#f28a22"/><g transform="translate(694.8331210531893 125.06385870875664) scale(1.4166666666666667)" fill="none" stroke="#ffffff" stroke-width="2" stroke-linecap="round" stroke-linejoin="round"><path d="M10.5 22H6a2 2 0 0 1-2-2V4a2 2 0 0 1 2-2h8a2.4 2.4 0 0 1 1.706.706l3.588 3.588A2.4 2.4 0 0 1 20 8v6"/><path d="M14 2v5a1 1 0 0 0 1 1h5"/><path d="m14 20 2 2 4-4"/></g><text x="711.8331210531893" y="203.06385870875664" text-anchor="middle" class="small">Plan</text><circle cx="666.0609417888517" cy="282.93614129124336" r="40" fill="#6657c7"/><g transform="translate(649.0609417888517 265.93614129124336) scale(1.4166666666666667)" fill="none" stroke="#ffffff" stroke-width="2" stroke-linecap="round" stroke-linejoin="round"><path d="M21 7 6.82 21.18a2.83 2.83 0 0 1-3.99-.01a2.83 2.83 0 0 1 0-4L17 3"/><path d="m16 2 6 6"/><path d="M12 16H4"/></g><text x="666.0609417888517" y="343.93614129124336" text-anchor="middle" class="small">Exercise</text><circle cx="517.9390582111484" cy="282.93614129124336" r="40" fill="#11958e"/><g transform="translate(500.93905821114845 265.93614129124336) scale(1.4166666666666667)" fill="none" stroke="#ffffff" stroke-width="2" stroke-linecap="round" stroke-linejoin="round"><rect width="20" height="5" x="2" y="3" rx="1"/><path d="M4 8v11a2 2 0 0 0 2 2h12a2 2 0 0 0 2-2V8"/><path d="M10 12h4"/></g><text x="517.9390582111484" y="343.93614129124336" text-anchor="middle" class="small">Evidence</text><circle cx="472.16687894681064" cy="142.06385870875664" r="40" fill="#dc4c4c"/><g transform="translate(455.16687894681064 125.06385870875664) scale(1.4166666666666667)" fill="none" stroke="#ffffff" stroke-width="2" stroke-linecap="round" stroke-linejoin="round"><path d="M10 11v6"/><path d="M14 11v6"/><path d="M19 6v14a2 2 0 0 1-2 2H7a2 2 0 0 1-2-2V6"/><path d="M3 6h18"/><path d="M8 6V4a2 2 0 0 1 2-2h4a2 2 0 0 1 2 2v2"/></g><text x="472.16687894681064" y="203.06385870875664" text-anchor="middle" class="small">Destroy</text><rect x="190" y="374" width="804" height="42" rx="8" fill="#dff2ff"/><text x="592" y="401" text-anchor="middle" class="band">Cleanup runs even when validation fails.</text></svg>